<?xml version="1.0" encoding="utf-8"?>
<!-- Generator: Adobe Illustrator 27.7.0, SVG Export Plug-In . SVG Version: 6.00 Build 0)  -->
<svg version="1.1" id="Capa_1" xmlns="http://www.w3.org/2000/svg" xmlns:xlink="http://www.w3.org/1999/xlink" x="0px" y="0px"
	 viewBox="0 0 595.28 841.89" style="enable-background:new 0 0 595.28 841.89;" xml:space="preserve">
<style type="text/css">
	.st0{fill:#45AF64;}
	.st1{fill:none;}
	.st2{font-family:'Swiss721BT-Black';}
	.st3{font-size:89.0368px;}
</style>
<g>
	<polyline class="st0" points="75.52,340.41 516.87,340.41 296.2,272.14 	"/>
	<path class="st0" d="M514.94,477.26H77.45c-1.06,0-1.92-0.86-1.92-1.92v-4.79c0-1.06,0.86-1.92,1.92-1.92h437.5
		c1.06,0,1.92,0.86,1.92,1.92v4.79C516.87,476.4,516.01,477.26,514.94,477.26z"/>
	<path class="st0" d="M514.94,490.72H77.45c-1.06,0-1.92-0.86-1.92-1.92v-4.79c0-1.06,0.86-1.92,1.92-1.92h437.49
		c1.06,0,1.93,0.86,1.93,1.92v4.79C516.86,489.86,516,490.72,514.94,490.72z"/>
	<rect x="86.1" y="371.98" class="st1" width="433.65" height="74.04"/>
	<text transform="matrix(1 0 0 1 86.0999 435.999)" class="st0 st2 st3">mindhub</text>
</g>
</svg>
